<svg width="35" height="32" viewBox="0 0 35 32" fill="none" xmlns="http://www.w3.org/2000/svg">
<path d="M15.372 25.2594C15.0874 26.8488 14.0222 27.8758 12.6582 27.8758C12.3229 27.8758 12.0512 27.604 12.0512 27.2688C12.0512 26.9335 12.3229 26.6617 12.6582 26.6617C13.5646 26.6617 14.0371 25.8268 14.177 25.0454C14.2361 24.7155 14.5513 24.4952 14.8815 24.5549C15.2114 24.6141 15.4311 24.9295 15.372 25.2594ZM27.9225 12.3441C27.9982 12.6115 28.2415 12.7859 28.5062 12.7859C28.561 12.7859 28.6166 12.7785 28.6718 12.7628C28.9945 12.6715 29.1819 12.336 29.0906 12.0134C28.4947 9.90858 27.4942 7.89527 26.2733 6.34433C26.066 6.08097 25.6844 6.03536 25.4209 6.24288C25.1575 6.45022 25.112 6.83186 25.3194 7.0953C26.4444 8.52449 27.3689 10.3886 27.9225 12.3441ZM10.8912 6.27808C10.6471 6.50788 10.6356 6.89213 10.8654 7.13615C11.6675 7.98797 12.3999 9.12206 12.9835 10.416C13.0848 10.6406 13.3058 10.7736 13.5372 10.7736C13.6206 10.7736 13.7054 10.7562 13.7864 10.7197C14.092 10.5819 14.2279 10.2225 14.0902 9.91682C13.452 8.50177 12.6425 7.25235 11.7492 6.30375C11.5193 6.05973 11.1352 6.04811 10.8912 6.27808ZM35 18.3417V21.3879C35 21.7231 34.7282 21.9949 34.393 21.9949H32.914L32.1348 26.3456C31.6897 28.8298 30.0462 30.4351 27.9477 30.4351H21.0249C19.5271 30.4351 18.2657 29.6282 17.5 28.2506C16.7344 29.6282 15.473 30.4351 13.9754 30.4351H7.05262C4.95398 30.4351 3.31043 28.8299 2.86548 26.3456L2.08615 21.9949H0.60702C0.271772 21.9949 0 21.7231 0 21.3879V18.3417C0 18.0065 0.271772 17.7347 0.60702 17.7347H2.79593C2.4332 15.9403 2.49572 13.8752 2.98324 11.7079C3.50624 9.38334 4.47383 7.18723 5.70781 5.52416C7.12434 3.61509 8.73797 2.59174 10.3742 2.56485C10.3809 2.56477 10.3875 2.56477 10.3942 2.56485C12.7862 2.60422 15.16 4.82141 16.7442 8.49587C16.8769 8.80372 16.7349 9.16091 16.4271 9.29367C16.1192 9.42635 15.7621 9.28448 15.6293 8.97655C14.2628 5.80686 12.2538 3.8167 10.3841 3.77889C9.15985 3.80361 7.84582 4.67989 6.68269 6.24756C4.34028 9.40467 3.24322 14.2494 4.03825 17.7347H17.0276C16.665 15.9403 16.7275 13.8751 17.2151 11.7078C17.7382 9.38316 18.7058 7.18705 19.9397 5.52408C21.3562 3.61509 22.9698 2.59182 24.606 2.56494C24.6126 2.56485 24.6194 2.56485 24.6259 2.56494C26.2622 2.59182 27.8758 3.61509 29.2924 5.52416C30.5263 7.18723 31.4939 9.38325 32.0168 11.7079C32.5045 13.8752 32.567 15.9403 32.2042 17.7347H34.393C34.7283 17.7347 35 18.0066 35 18.3417ZM18.27 17.7347H30.9619C31.757 14.2493 30.6599 9.40458 28.3174 6.24756C27.1542 4.67997 25.8402 3.8037 24.616 3.77898C23.3918 3.8037 22.0778 4.67997 20.9146 6.24747C18.5721 9.4045 17.4751 14.2493 18.27 17.7347ZM33.786 18.9488H31.4471C31.4378 18.9489 31.4286 18.9489 31.4193 18.9488H17.8124C17.8034 18.9489 17.7943 18.9489 17.7848 18.9488H3.5809C3.57153 18.9489 3.56217 18.9489 3.55298 18.9488H1.21404V20.7808H7.29335C7.6286 20.7808 7.90037 21.0526 7.90037 21.3879C7.90037 21.7231 7.6286 21.9949 7.29335 21.9949H3.31953L4.06053 26.1315C4.31574 27.5568 5.25255 29.2211 7.05262 29.2211H13.9754C15.6531 29.2211 16.5909 27.7706 16.9091 26.4131C16.9734 26.1387 17.2182 25.9446 17.5 25.9446C17.7819 25.9446 18.0268 26.1387 18.091 26.4131C18.4092 27.7706 19.3469 29.2211 21.0249 29.2211H27.9477C29.7476 29.2211 30.6844 27.5567 30.9397 26.1315L31.6807 21.9949H27.7068C27.3716 21.9949 27.0998 21.7231 27.0998 21.3879C27.0998 21.0526 27.3716 20.7808 27.7068 20.7808H33.786V18.9488H33.786ZM25.9845 27.2688C25.9845 27.604 26.2562 27.8758 26.5915 27.8758C27.9553 27.8758 29.0206 26.8489 29.3054 25.2595C29.3645 24.9295 29.1449 24.6141 28.8149 24.5549C28.4851 24.4953 28.1696 24.7155 28.1103 25.0453C27.9704 25.8267 27.4978 26.6617 26.5915 26.6617C26.2562 26.6617 25.9845 26.9335 25.9845 27.2688Z" fill="#C77BFF"/>
</svg>
