<svg width="216" height="32" viewBox="0 0 216 32" fill="none" xmlns="http://www.w3.org/2000/svg">
<g clip-path="url(#clip0_1_2)">
<rect width="216" height="32" fill="white"/>
<path d="M16.372 25.2594C16.0874 26.8488 15.0222 27.8758 13.6582 27.8758C13.3229 27.8758 13.0512 27.604 13.0512 27.2688C13.0512 26.9335 13.3229 26.6617 13.6582 26.6617C14.5646 26.6617 15.0371 25.8268 15.177 25.0454C15.2361 24.7155 15.5513 24.4952 15.8815 24.5549C16.2114 24.6141 16.4311 24.9295 16.372 25.2594ZM28.9225 12.3441C28.9982 12.6115 29.2415 12.7859 29.5062 12.7859C29.561 12.7859 29.6166 12.7785 29.6718 12.7628C29.9945 12.6715 30.1819 12.336 30.0906 12.0134C29.4947 9.90858 28.4942 7.89527 27.2733 6.34433C27.066 6.08097 26.6844 6.03536 26.4209 6.24288C26.1575 6.45022 26.112 6.83186 26.3194 7.0953C27.4444 8.52449 28.3689 10.3886 28.9225 12.3441ZM11.8912 6.27808C11.6471 6.50788 11.6356 6.89213 11.8654 7.13615C12.6675 7.98797 13.3999 9.12206 13.9835 10.416C14.0848 10.6406 14.3058 10.7736 14.5372 10.7736C14.6206 10.7736 14.7054 10.7562 14.7864 10.7197C15.092 10.5819 15.2279 10.2225 15.0902 9.91682C14.452 8.50177 13.6425 7.25235 12.7492 6.30375C12.5193 6.05973 12.1352 6.04811 11.8912 6.27808ZM36 18.3417V21.3879C36 21.7231 35.7282 21.9949 35.393 21.9949H33.914L33.1348 26.3456C32.6897 28.8298 31.0462 30.4351 28.9477 30.4351H22.0249C20.5271 30.4351 19.2657 29.6282 18.5 28.2506C17.7344 29.6282 16.473 30.4351 14.9754 30.4351H8.05262C5.95398 30.4351 4.31043 28.8299 3.86548 26.3456L3.08615 21.9949H1.60702C1.27177 21.9949 1 21.7231 1 21.3879V18.3417C1 18.0065 1.27177 17.7347 1.60702 17.7347H3.79593C3.4332 15.9403 3.49572 13.8752 3.98324 11.7079C4.50624 9.38334 5.47383 7.18723 6.70781 5.52416C8.12434 3.61509 9.73797 2.59174 11.3742 2.56485C11.3809 2.56477 11.3875 2.56477 11.3942 2.56485C13.7862 2.60422 16.16 4.82141 17.7442 8.49587C17.8769 8.80372 17.7349 9.16091 17.4271 9.29367C17.1192 9.42635 16.7621 9.28448 16.6293 8.97655C15.2628 5.80686 13.2538 3.8167 11.3841 3.77889C10.1598 3.80361 8.84582 4.67989 7.68269 6.24756C5.34028 9.40467 4.24322 14.2494 5.03825 17.7347H18.0276C17.665 15.9403 17.7275 13.8751 18.2151 11.7078C18.7382 9.38316 19.7058 7.18705 20.9397 5.52408C22.3562 3.61509 23.9698 2.59182 25.606 2.56494C25.6126 2.56485 25.6194 2.56485 25.6259 2.56494C27.2622 2.59182 28.8758 3.61509 30.2924 5.52416C31.5263 7.18723 32.4939 9.38325 33.0168 11.7079C33.5045 13.8752 33.567 15.9403 33.2042 17.7347H35.393C35.7283 17.7347 36 18.0066 36 18.3417ZM19.27 17.7347H31.9619C32.757 14.2493 31.6599 9.40458 29.3174 6.24756C28.1542 4.67997 26.8402 3.8037 25.616 3.77898C24.3918 3.8037 23.0778 4.67997 21.9146 6.24747C19.5721 9.4045 18.4751 14.2493 19.27 17.7347ZM34.786 18.9488H32.4471C32.4378 18.9489 32.4286 18.9489 32.4193 18.9488H18.8124C18.8034 18.9489 18.7943 18.9489 18.7848 18.9488H4.5809C4.57153 18.9489 4.56217 18.9489 4.55298 18.9488H2.21404V20.7808H8.29335C8.6286 20.7808 8.90037 21.0526 8.90037 21.3879C8.90037 21.7231 8.6286 21.9949 8.29335 21.9949H4.31953L5.06053 26.1315C5.31574 27.5568 6.25255 29.2211 8.05262 29.2211H14.9754C16.6531 29.2211 17.5909 27.7706 17.9091 26.4131C17.9734 26.1387 18.2182 25.9446 18.5 25.9446C18.7819 25.9446 19.0268 26.1387 19.091 26.4131C19.4092 27.7706 20.3469 29.2211 22.0249 29.2211H28.9477C30.7476 29.2211 31.6844 27.5567 31.9397 26.1315L32.6807 21.9949H28.7068C28.3716 21.9949 28.0998 21.7231 28.0998 21.3879C28.0998 21.0526 28.3716 20.7808 28.7068 20.7808H34.786V18.9488H34.786ZM26.9845 27.2688C26.9845 27.604 27.2562 27.8758 27.5915 27.8758C28.9553 27.8758 30.0206 26.8489 30.3054 25.2595C30.3645 24.9295 30.1449 24.6141 29.8149 24.5549C29.4851 24.4953 29.1696 24.7155 29.1103 25.0453C28.9704 25.8267 28.4978 26.6617 27.5915 26.6617C27.2562 26.6617 26.9845 26.9335 26.9845 27.2688Z" fill="#C77BFF"/>
<path d="M55.4546 29.1289C55.2075 29.043 54.6758 29 53.8594 29H45.5771C45.0186 29 44.5728 28.9141 44.2397 28.7422C43.9067 28.5596 43.7402 28.2319 43.7402 27.7593C43.7402 27.4155 43.8208 27.1416 43.9819 26.9375C44.3901 27.0449 44.7822 27.0986 45.1582 27.0986C45.5342 27.0986 45.8296 27.061 46.0444 26.9858C46.2593 26.8999 46.4473 26.7549 46.6084 26.5508C46.9307 26.1211 47.0918 25.4067 47.0918 24.4077V8.22998C47.0918 7.23096 46.501 6.60791 45.3193 6.36084C44.5781 6.21045 44.0947 6.03857 43.8691 5.84521C43.6436 5.65186 43.5308 5.44238 43.5308 5.2168C43.5308 4.72266 43.6167 4.38965 43.7886 4.21777C43.9819 4.27148 44.1592 4.29834 44.3203 4.29834H48.3164L54.0527 4.13721C59.0801 4.13721 62.2598 5.50684 63.5918 8.24609C64.0752 9.23437 64.3169 10.2227 64.3169 11.2109C64.3169 12.1992 64.2471 13.0425 64.1074 13.7407C63.9678 14.439 63.7261 15.1211 63.3823 15.7871C63.0493 16.4424 62.6035 17.0654 62.0449 17.6562C61.4863 18.2363 60.7881 18.7466 59.9502 19.187C58.1348 20.1323 55.8145 20.605 52.9893 20.605H52.377C52.0762 20.605 51.9258 20.4116 51.9258 20.0249C51.9258 19.1763 52.1567 18.6982 52.6187 18.5908C56.6577 18.6768 59.1016 17.4736 59.9502 14.9814C60.208 14.1973 60.3369 13.3594 60.3369 12.4678C60.3369 11.5762 60.2402 10.7598 60.0469 10.0186C59.8535 9.2666 59.5044 8.60059 58.9995 8.02051C57.8823 6.75293 56.0347 6.11914 53.4565 6.11914C52.4146 6.11914 51.7217 6.34473 51.3779 6.7959C51.0557 7.19336 50.8945 7.99902 50.8945 9.21289V25.3101C50.9482 26.1479 51.6143 26.6582 52.8926 26.8408C54.042 27.002 54.7563 27.1523 55.0356 27.292C55.3149 27.4316 55.4976 27.5713 55.5835 27.7109C55.6694 27.8398 55.7124 28.001 55.7124 28.1943C55.7124 28.6025 55.6265 28.9141 55.4546 29.1289ZM66.8467 20.3311C66.8467 19.0312 66.981 17.8765 67.2495 16.8667C67.5181 15.8569 67.8779 14.9546 68.3291 14.1597C68.791 13.354 69.3281 12.6504 69.9404 12.0488C70.5635 11.4473 71.2295 10.9478 71.9385 10.5503C73.335 9.75537 74.71 9.35791 76.0635 9.35791C77.417 9.35791 78.502 9.59961 79.3184 10.083C80.1348 10.5557 80.8008 11.1895 81.3164 11.9844C82.2725 13.499 82.7505 15.5132 82.7505 18.0269C82.7505 18.9614 82.3584 19.4395 81.5742 19.4609L70.3271 19.7026C70.3916 22.0337 70.9932 23.7578 72.1318 24.875C73.0986 25.8203 74.3501 26.293 75.8862 26.293C78.1743 26.293 80.0327 25.8149 81.4614 24.8589C81.5581 24.8589 81.6763 24.9395 81.8159 25.1006C82.0845 25.4229 82.2188 25.7021 82.2188 25.9385C82.2188 26.4541 81.5742 27.1147 80.2852 27.9204C78.8027 28.8442 77.0732 29.3062 75.0967 29.3062C72.5186 29.3062 70.4937 28.4844 69.022 26.8408C67.5718 25.2295 66.8467 23.0596 66.8467 20.3311ZM70.4238 17.624C73.5176 17.4736 76.3481 17.2749 78.9155 17.0278C79.0337 13.6118 77.8521 11.9038 75.3706 11.9038C73.9849 11.9038 72.8516 12.4409 71.9707 13.5151C71.165 14.5034 70.6494 15.873 70.4238 17.624ZM91.8867 18.0107L91.8706 22.2485C91.8706 24.021 91.9619 25.0898 92.1445 25.4551C92.3271 25.8096 92.542 26.0244 92.7891 26.0996C93.0361 26.1641 93.353 26.1963 93.7397 26.1963C94.1265 26.1963 94.4756 26.1694 94.7871 26.1157C95.1094 26.0513 95.4102 25.9707 95.6895 25.874C95.9688 25.7773 96.2373 25.6699 96.4951 25.5518L97.2847 25.2134C97.4673 25.1489 97.6714 25.3369 97.897 25.7773C97.9614 25.8955 97.9937 26.0352 97.9937 26.1963C97.9937 26.3467 97.9292 26.5454 97.8003 26.7925C97.6714 27.0396 97.4189 27.3242 97.043 27.6465C96.6777 27.958 96.248 28.2373 95.7539 28.4844C94.6797 29.0322 93.7129 29.3062 92.8535 29.3062C92.0049 29.3062 91.312 29.2578 90.7749 29.1611C90.2378 29.0645 89.7812 28.8711 89.4053 28.5811C88.6318 27.9795 88.2451 26.8784 88.2451 25.2778V12.5967H86.6499C86.3169 12.5967 86.0752 12.4893 85.9248 12.2744C85.667 11.9414 85.5381 11.6621 85.5381 11.4365C85.5381 11.0605 85.6294 10.8511 85.812 10.8081C87.52 10.5181 88.7285 9.25049 89.4375 7.00537C89.6416 6.32861 89.8027 5.52832 89.9209 4.60449C90.4365 4.51855 90.8232 4.47559 91.0811 4.47559C91.3496 4.47559 91.5806 4.60986 91.7739 4.87842C91.9673 5.14697 92.0586 5.4585 92.0479 5.81299C92.0479 6.16748 92.0425 6.50049 92.0317 6.81201C92.021 7.12354 92.0103 7.46191 91.9995 7.82715L91.9351 10.083H97.5103C97.6499 10.3301 97.7197 10.5933 97.7197 10.8726V11.3721C97.7197 11.8232 97.478 12.1938 96.9946 12.4839C96.5112 12.7632 95.9741 12.9028 95.3833 12.9028C94.8032 12.9028 94.3843 12.8975 94.1265 12.8867C93.8794 12.8652 93.6377 12.8438 93.4014 12.8223L92.6924 12.7256C92.4453 12.7041 92.1821 12.6826 91.9028 12.6611V12.8384L91.8867 18.0107ZM100.652 20.3311C100.652 19.0312 100.787 17.8765 101.055 16.8667C101.324 15.8569 101.684 14.9546 102.135 14.1597C102.597 13.354 103.134 12.6504 103.746 12.0488C104.369 11.4473 105.035 10.9478 105.744 10.5503C107.141 9.75537 108.516 9.35791 109.869 9.35791C111.223 9.35791 112.308 9.59961 113.124 10.083C113.94 10.5557 114.606 11.1895 115.122 11.9844C116.078 13.499 116.556 15.5132 116.556 18.0269C116.556 18.9614 116.164 19.4395 115.38 19.4609L104.133 19.7026C104.197 22.0337 104.799 23.7578 105.938 24.875C106.904 25.8203 108.156 26.293 109.692 26.293C111.98 26.293 113.838 25.8149 115.267 24.8589C115.364 24.8589 115.482 24.9395 115.622 25.1006C115.89 25.4229 116.024 25.7021 116.024 25.9385C116.024 26.4541 115.38 27.1147 114.091 27.9204C112.608 28.8442 110.879 29.3062 108.902 29.3062C106.324 29.3062 104.299 28.4844 102.828 26.8408C101.377 25.2295 100.652 23.0596 100.652 20.3311ZM104.229 17.624C107.323 17.4736 110.154 17.2749 112.721 17.0278C112.839 13.6118 111.658 11.9038 109.176 11.9038C107.791 11.9038 106.657 12.4409 105.776 13.5151C104.971 14.5034 104.455 15.873 104.229 17.624ZM122.969 29C121.326 29 120.504 28.624 120.504 27.8721C120.504 27.4746 120.584 27.1738 120.746 26.9697C121.003 27.0557 121.245 27.0986 121.471 27.0986C122.405 27.0986 122.889 26.5347 122.921 25.4067V5.23291C122.921 4.48096 122.846 4.00293 122.695 3.79883C122.448 3.45508 122.051 3.2832 121.503 3.2832C121.256 3.2832 121.014 3.31006 120.778 3.36377C120.552 3.40674 120.391 3.40674 120.294 3.36377C120.208 3.31006 120.139 3.24023 120.085 3.1543C119.87 2.7998 120.139 2.34863 120.891 1.80078C122.072 0.930664 123.238 0.495605 124.387 0.495605C125.612 0.495605 126.299 1.15625 126.45 2.47754C126.493 2.875 126.514 3.29395 126.514 3.73438V25.4712C126.546 26.3091 126.853 26.8247 127.433 27.0181C127.604 27.0718 127.803 27.1201 128.029 27.1631C128.265 27.2061 128.48 27.2598 128.673 27.3242C128.867 27.3779 129.017 27.4424 129.125 27.5176C129.307 27.6572 129.398 27.8828 129.398 28.1943C129.398 28.5703 129.312 28.8657 129.141 29.0806C128.926 29.0269 128.582 29 128.109 29H122.969ZM133.056 14.6592C133.056 14.0469 133.008 13.5581 132.911 13.1929C132.825 12.8169 132.643 12.6289 132.363 12.6289C132.159 12.6289 131.998 12.6504 131.88 12.6934L131.493 12.8545C131.418 12.876 131.327 12.833 131.219 12.7256C131.015 12.5 130.913 12.2959 130.913 12.1133C130.913 11.9199 130.972 11.7212 131.09 11.5171C131.219 11.3022 131.407 11.0605 131.654 10.792C131.912 10.5234 132.202 10.2871 132.524 10.083C133.255 9.59961 133.916 9.35791 134.506 9.35791C135.097 9.35791 135.516 9.45996 135.763 9.66406C136.01 9.86816 136.198 10.1367 136.327 10.4697C136.542 11.0068 136.649 11.8179 136.649 12.9028V22.9897C136.649 24.8052 137.197 25.8203 138.293 26.0352C138.626 26.0996 139.018 26.1318 139.469 26.1318C139.931 26.1318 140.42 26.0728 140.936 25.9546C141.462 25.8364 141.961 25.6807 142.434 25.4873C143.347 25.1113 144.153 24.6333 144.851 24.0532V14.6592C144.851 13.6387 144.668 13.0103 144.303 12.7739C144.153 12.6772 143.954 12.6289 143.707 12.6289C143.46 12.6289 143.261 12.6665 143.111 12.7417C142.971 12.8169 142.853 12.8706 142.756 12.9028C142.67 12.9351 142.595 12.9351 142.531 12.9028C142.466 12.8599 142.396 12.8008 142.321 12.7256C142.16 12.543 142.08 12.3604 142.08 12.1777C142.08 11.9951 142.144 11.8018 142.273 11.5977C142.413 11.3828 142.633 11.1411 142.934 10.8726C143.234 10.5933 143.578 10.3408 143.965 10.1152C144.835 9.61035 145.705 9.35791 146.575 9.35791C147.628 9.35791 148.229 10.1045 148.38 11.5977C148.423 12.0166 148.444 12.4517 148.444 12.9028V22.4419C148.444 24.0962 148.509 25.1274 148.638 25.5356C148.767 25.9438 148.922 26.2124 149.105 26.3413C149.288 26.4595 149.513 26.5186 149.782 26.5186C150.05 26.5186 150.271 26.4756 150.442 26.3896L150.926 26.1802C151.065 26.1479 151.189 26.2124 151.296 26.3735C151.522 26.7065 151.554 27.0073 151.393 27.2759C151.232 27.5444 150.979 27.8022 150.636 28.0493C150.303 28.2964 149.927 28.5112 149.508 28.6938C147.649 29.5103 146.328 29.4941 145.544 28.6455C145.136 28.2051 144.905 27.5068 144.851 26.5508C143.272 27.7646 141.655 28.6025 140.001 29.0645C139.399 29.2256 138.766 29.3062 138.1 29.3062C137.444 29.3062 136.8 29.2148 136.166 29.0322C135.543 28.8496 135 28.5542 134.539 28.146C133.55 27.2759 133.056 25.9331 133.056 24.1177V14.6592ZM162.672 29.0806C162.447 29.0269 162.103 29 161.641 29H156.179C155.147 29 154.487 28.8174 154.197 28.4521C154.079 28.3125 154.02 28.1514 154.02 27.9688C154.02 27.5176 154.105 27.1846 154.277 26.9697C154.535 27.0557 154.771 27.0986 154.986 27.0986C155.212 27.0986 155.4 27.0718 155.55 27.0181C155.701 26.9536 155.819 26.8516 155.905 26.7119C156.055 26.4541 156.13 25.9492 156.13 25.1973V14.6592C156.13 13.6494 155.942 13.021 155.566 12.7739C155.416 12.6772 155.217 12.6289 154.97 12.6289C154.723 12.6289 154.524 12.6665 154.374 12.7417C154.234 12.8169 154.116 12.8706 154.02 12.9028C153.934 12.9351 153.858 12.9351 153.794 12.9028C153.729 12.8599 153.665 12.8008 153.601 12.7256C153.439 12.5322 153.359 12.3496 153.359 12.1777C153.359 11.9951 153.423 11.8018 153.552 11.5977C153.692 11.3828 153.912 11.1411 154.213 10.8726C154.514 10.5933 154.857 10.3408 155.244 10.1152C156.114 9.61035 156.984 9.35791 157.854 9.35791C158.843 9.35791 159.428 10.0024 159.611 11.2915C159.665 11.6675 159.697 12.0596 159.708 12.4678C161.276 11.082 162.893 10.1313 164.558 9.61572C165.116 9.44385 165.621 9.35791 166.072 9.35791C166.534 9.35791 166.91 9.42236 167.2 9.55127C167.501 9.68018 167.737 9.85742 167.909 10.083C168.231 10.5234 168.393 11.0874 168.393 11.7749C168.393 12.4624 168.36 13.0103 168.296 13.4185C168.231 13.8267 168.151 14.1865 168.054 14.498C167.861 15.1318 167.678 15.5347 167.506 15.7065C167.206 16.0181 166.803 16.1738 166.298 16.1738C165.782 16.1738 165.524 16.0234 165.524 15.7227C165.524 14.5732 165.476 13.8374 165.379 13.5151C165.197 12.9243 164.853 12.6289 164.348 12.6289C163.843 12.6289 163.387 12.688 162.979 12.8062C162.57 12.9136 162.173 13.064 161.786 13.2573C161.002 13.644 160.314 14.1436 159.724 14.7559V25.4712C159.756 26.3198 160.126 26.8354 160.835 27.0181C161.04 27.0718 161.271 27.1201 161.528 27.1631C161.786 27.2061 162.006 27.2598 162.189 27.3242C162.382 27.3779 162.533 27.4424 162.64 27.5176C162.823 27.6572 162.914 27.8828 162.914 28.1943C162.914 28.5811 162.833 28.8765 162.672 29.0806ZM188.583 9.88965C188.583 12.7041 187.003 14.8042 183.845 16.1899C185.532 16.5015 186.901 17.1782 187.954 18.2202C189.082 19.3374 189.646 20.6802 189.646 22.2485C189.646 24.2466 188.792 25.9062 187.084 27.2275C185.312 28.6133 183.023 29.3062 180.22 29.3062C177.695 29.3062 175.638 28.8711 174.048 28.001C172.437 27.1309 171.631 25.9976 171.631 24.6011C171.631 23.5913 171.991 22.8125 172.711 22.2646C173.141 21.9209 173.517 21.749 173.839 21.749C174.161 21.749 174.537 21.8027 174.967 21.9102C174.967 24.3594 176.132 25.874 178.463 26.4541C179.022 26.5938 179.693 26.6636 180.478 26.6636C181.272 26.6636 181.992 26.5508 182.637 26.3252C183.292 26.0889 183.84 25.7612 184.28 25.3423C185.193 24.4937 185.65 23.3657 185.65 21.9585C185.65 20.8198 185.183 19.8369 184.248 19.0098C183.142 18.043 181.595 17.5596 179.607 17.5596C179.285 17.5596 178.812 17.5864 178.189 17.6401C177.835 17.6401 177.572 17.2319 177.4 16.4155C177.357 16.2114 177.335 15.9858 177.335 15.7388C177.335 15.4917 177.416 15.3682 177.577 15.3682C179.854 15.3252 181.638 14.8042 182.927 13.8052C184.098 12.9028 184.683 11.8018 184.683 10.502C184.683 9.42773 184.291 8.54688 183.507 7.85938C182.733 7.16113 181.799 6.81201 180.703 6.81201C179.607 6.81201 178.759 6.91406 178.157 7.11816C177.556 7.31152 177.083 7.59082 176.739 7.95605C176.138 8.63281 175.858 9.65869 175.901 11.0337C175.536 11.2915 175.182 11.4204 174.838 11.4204C174.494 11.4204 174.188 11.3667 173.919 11.2593C173.651 11.1519 173.415 10.9854 173.21 10.7598C172.759 10.2656 172.534 9.66943 172.534 8.97119C172.534 8.26221 172.716 7.63916 173.082 7.10205C173.447 6.56494 173.979 6.07617 174.677 5.63574C176.288 4.64746 178.302 4.15332 180.719 4.15332C182.954 4.15332 184.796 4.64746 186.246 5.63574C187.804 6.69922 188.583 8.11719 188.583 9.88965ZM199.878 26.019C200.931 26.0405 201.978 26.0513 203.02 26.0513C204.062 26.0513 205.04 26.0298 205.953 25.9868C206.866 25.9438 207.645 25.8042 208.289 25.5679C209.632 25.0737 210.352 23.9888 210.448 22.313C210.663 22.2593 210.851 22.2324 211.012 22.2324C211.431 22.2324 211.71 22.3506 211.85 22.5869C212 22.8125 212.113 23.0703 212.188 23.3604C212.264 23.6504 212.317 23.9619 212.35 24.2949C212.425 24.8965 212.462 25.4336 212.462 25.9062C212.462 26.3682 212.409 26.7817 212.301 27.147C212.205 27.5015 212.049 27.8184 211.834 28.0977C211.361 28.6992 210.652 29 209.707 29H195.608C195.296 28.8496 195.065 28.5972 194.915 28.2427C194.775 27.8882 194.706 27.582 194.706 27.3242C194.706 26.8516 194.797 26.5347 194.979 26.3735C198.503 24.1392 201.43 21.6094 203.761 18.7842C206.178 15.873 207.387 13.2627 207.387 10.9531C207.387 9.76074 207.038 8.7832 206.339 8.02051C205.598 7.21484 204.594 6.81201 203.326 6.81201C202.026 6.81201 200.952 7.18262 200.104 7.92383C199.18 8.72949 198.718 9.86816 198.718 11.3398C198.718 11.5332 198.729 11.7266 198.75 11.9199C198.234 12.1992 197.794 12.3389 197.429 12.3389C197.063 12.3389 196.752 12.2852 196.494 12.1777C196.247 12.0703 196.027 11.9038 195.833 11.6782C195.404 11.1733 195.189 10.502 195.189 9.66406C195.189 8.82617 195.366 8.08496 195.721 7.44043C196.086 6.7959 196.623 6.22656 197.332 5.73242C198.847 4.67969 200.925 4.15332 203.568 4.15332C206.039 4.15332 207.972 4.76025 209.369 5.97412C210.765 7.17725 211.463 8.81006 211.463 10.8726C211.463 14.2349 209.073 18.0752 204.293 22.3936C202.896 23.6611 201.425 24.8696 199.878 26.019Z" fill="url(#paint0_linear_1_2)"/>
</g>
<defs>
<linearGradient id="paint0_linear_1_2" x1="198.791" y1="15.421" x2="6.62229" y2="13.7267" gradientUnits="userSpaceOnUse">
<stop stop-color="#A25CFF"/>
<stop offset="1" stop-color="#C77BFF"/>
</linearGradient>
<clipPath id="clip0_1_2">
<rect width="216" height="32" fill="white"/>
</clipPath>
</defs>
</svg>
